<?xml version="1.0" encoding="UTF-8" standalone="no"?>
<svg
   xmlns:dc="http://purl.org/dc/elements/1.1/"
   xmlns:cc="http://creativecommons.org/ns#"
   xmlns:rdf="http://www.w3.org/1999/02/22-rdf-syntax-ns#"
   xmlns:svg="http://www.w3.org/2000/svg"
   xmlns="http://www.w3.org/2000/svg"
   xmlns:sodipodi="http://sodipodi.sourceforge.net/DTD/sodipodi-0.dtd"
   xmlns:inkscape="http://www.inkscape.org/namespaces/inkscape"
   width="15mm"
   height="15mm"
   viewBox="0 0 15 15"
   version="1.1"
   id="svg8"
   inkscape:version="1.0.1 (3bc2e813f5, 2020-09-07)"
   sodipodi:docname="lup.svg">
  <defs
     id="defs2" />
  <sodipodi:namedview
     id="base"
     pagecolor="#ffffff"
     bordercolor="#666666"
     borderopacity="1.0"
     inkscape:pageopacity="0.0"
     inkscape:pageshadow="2"
     inkscape:zoom="3.959798"
     inkscape:cx="115.13698"
     inkscape:cy="55.428803"
     inkscape:document-units="mm"
     inkscape:current-layer="layer1"
     inkscape:document-rotation="0"
     showgrid="false"
     inkscape:window-width="1366"
     inkscape:window-height="703"
     inkscape:window-x="0"
     inkscape:window-y="28"
     inkscape:window-maximized="1" />
  <metadata
     id="metadata5">
    <rdf:RDF>
      <cc:Work
         rdf:about="">
        <dc:format>image/svg+xml</dc:format>
        <dc:type
           rdf:resource="http://purl.org/dc/dcmitype/StillImage" />
        <dc:title></dc:title>
      </cc:Work>
    </rdf:RDF>
  </metadata>
  <g
     inkscape:label="Capa 1"
     inkscape:groupmode="layer"
     id="layer1">
    <path
       style="fill:#ffffff;stroke-width:0.0224406"
       d="M 1.0639211,11.973913 C 0.91951238,11.935038 0.74255441,11.82295 0.61828714,11.691642 0.27203902,11.32578 0.2521052,10.894943 0.55782744,10.384883 0.61888197,10.28302 0.97242694,9.9137929 1.9155703,8.9669137 3.0322805,7.8457795 3.1907656,7.6783126 3.1907656,7.6194314 c 0,-0.038838 -0.069018,-0.2042317 -0.1634014,-0.3915789 C 2.6973038,6.5726986 2.5502883,6.0082825 2.5249538,5.2990093 2.4973674,4.5267444 2.6336027,3.869868 2.96477,3.1783739 3.6420732,1.7641256 4.9173755,0.82349874 6.4986646,0.57187183 6.8164561,0.52130224 7.5199918,0.52145436 7.8490388,0.57216293 8.8616074,0.72820995 9.7504122,1.175533 10.462215,1.8873373 c 0.711807,0.7118042 1.159129,1.6006102 1.315175,2.6131789 0.05071,0.3290464 0.05087,1.0325809 2.75e-4,1.3503732 C 11.526038,7.4321784 10.585414,8.7074801 9.171164,9.3847846 8.4796705,9.7159513 7.8227927,9.8521863 7.0505295,9.8246002 6.3412561,9.7992597 5.7768394,9.65225 5.1216844,9.3221896 4.9343383,9.2278061 4.7689428,9.158789 4.7301064,9.158789 c -0.058881,0 -0.2263473,0.1584836 -1.3474821,1.275193 -1.2854893,1.280419 -1.3815725,1.366818 -1.6423754,1.476872 -0.2283771,0.09637 -0.469199,0.118824 -0.6763448,0.06306 z M 7.5672685,8.5969429 C 8.3512925,8.5009878 9.0612253,8.1556599 9.6025027,7.606957 9.9117604,7.2934543 10.072874,7.0689478 10.259406,6.6915794 10.739007,5.721319 10.723771,4.5474593 10.219101,3.5860444 9.2326682,1.7068513 6.7988094,1.1578543 5.098215,2.4309443 4.6201723,2.788814 4.201233,3.3370288 3.9777394,3.8971757 3.3067119,5.5789825 4.0338271,7.4610273 5.6704485,8.2785431 6.2124999,8.549306 6.9478876,8.6727482 7.5672685,8.5969429 Z M 4.8401475,4.8524042 C 4.6601925,4.7688272 4.5609976,4.6117577 4.5601323,4.4090276 4.5598577,4.3144179 4.5800724,4.2524153 4.6714205,4.0699603 5.1477466,3.1184849 6.0540889,2.5032694 7.1265104,2.4034704 7.6110076,2.358383 8.2097563,2.4563418 8.576506,2.6406974 8.7569358,2.7313951 8.8462025,2.8743209 8.8452985,3.0710604 8.8442427,3.3323086 8.6290639,3.5479887 8.3692664,3.5485183 8.3355116,3.5485859 8.2042301,3.5140975 8.0775366,3.4718739 7.4416736,3.2599594 6.8289145,3.3266484 6.2832596,3.6671535 5.9525538,3.8735228 5.7155223,4.1381694 5.5150971,4.5248091 5.4575154,4.6358902 5.3881288,4.7451164 5.3609021,4.7675344 5.2079239,4.8934977 5.0011788,4.9271921 4.8401475,4.8524042 Z"
       id="path24" />
  </g>
</svg>
